<svg xmlns="http://www.w3.org/2000/svg" width="1366" height="768" viewBox="0 0 1366 768"><title>Code</title><g id="Always"><path d="M255.09,178a67,67,0,0,0,25.71-47.8c1.44-18.66-6.28-37.07-19.61-50a64.42,64.42,0,0,0-50-18.23c-19.52,1.58-37.8,10.95-52,24.27-31.46,29.61-39.56,77.89-40.87,119.13-.69,21.62,2.58,44.22,16.14,61.77,11.94,15.44,30.12,23.27,49.53,20.53,21.26-3,39.6-16.65,51.35-34.21,13.48-20.15,19.1-44.34,23.77-67.77l-8.11-1.1a187.52,187.52,0,0,0,1.78,48.72c2.28,13.58,5.51,28.39,13,40.17s19.42,17.8,33.34,15.82,26.74-9.7,38.38-17c44.31-27.58,78.64-70.09,97.49-118.64a231.79,231.79,0,0,0,11-37.2c1.3-6.31,2.31-12.67,3.08-19.07.69-5.69,1.45-11.47.05-17.12C448,75.52,445,71,440,69.75c-6.22-1.57-11.45,2.72-15,7.3-9.06,11.66-16.49,25-22.83,38.26a247.72,247.72,0,0,0-23.24,85.47c-2,23-1.13,49.75,14.08,68.64,17.54,21.79,48.32,16.48,70.9,6.27A110,110,0,0,0,517,224.15a106.53,106.53,0,0,0,6.62-17.45l-8.28-1.12c-2.12,23.43-16.93,47.27-2.64,69.72,5,7.8,13.14,13.83,22.74,13.4,9-.4,16.34-5.89,20.83-13.5,5.4-9.13,7.22-20.59,6.22-31.06-.5-5.2-8.38-5.42-8.28,0,.24,13.17,3.73,27.22,13.55,36.61,8.43,8.07,21.74,11.64,32.77,7.14,12.46-5.07,16.57-18.48,18.46-30.66a290,290,0,0,0,3.36-50.55l-3,4L704.68,194c2.24-.44,3.41-3.06,2.9-5.1-1.39-5.56-6.43-7.74-11.78-6.86-6,1-10.79,4.7-14.53,9.28a144.92,144.92,0,0,0-23.65,41.48c-4.93,13.32-11.42,33.1,1.44,44.1,5.22,4.46,12.29,5.8,18.47,2.46,6.37-3.45,10.2-10.64,13.74-16.64A218.52,218.52,0,0,0,714,209.26c1.18-4.34-5.35-7.38-7.45-3.14a44.36,44.36,0,0,0-2.06,34.56c3.74,10.37,12.48,22.5,24.4,23.6,13.65,1.26,19.2-13.08,23.7-23.27,6.68-15.12,13.43-30.21,20-45.38l-6.47.83c3.34,4.12,3,10,2.9,14.95-.06,5.23-.21,10.73,1.55,15.74,3.11,8.79,11.47,13.53,20.54,13.7,24.15.45,32.55-24.67,36.86-44h-7.69q9.46,51.62,16.25,103.65c2.17,16.7,4.43,33.46,5.88,50.25,1.06,12.28,1.38,25-1.9,37-3,11-10,21.5-21.24,25.27-10.45,3.49-21.89.86-31.11-4.73A43.85,43.85,0,0,1,768,381.11c-3.38-13.92-.61-28.75,5.17-41.65,12.45-27.82,38-46,61.54-63.8,24.37-18.45,48.3-38.92,65.35-64.6,7.57-11.39,13-25.16,9.4-38.92-2.93-11.09-12.2-21.68-24.47-21.35-10.75.28-22.2,9.14-21.79,20.61.45,12.61,14.2,21.57,23.48,28.09,9.84,6.91,20.42,12.91,29.5,20.85a55.7,55.7,0,0,1,11.3,13c2.59,4.29,6.55,11.71,4.13,16.79-2.64,5.57-14.76,3.54-19.49,2.69a50.51,50.51,0,0,1-20.48-8.47c-2.9-2.09-5.59-4.66-4.75-8.53.78-3.67,3.64-6.81,6.16-9.42a112.37,112.37,0,0,1,17.35-14.64,114.31,114.31,0,0,1,19-10.54c4.82-2.09.66-9.14-4.13-7.06a119.12,119.12,0,0,0-38.4,26.08c-4.81,5-9.57,11.32-8.84,18.61.77,7.69,7.62,12.5,13.87,15.94a60.62,60.62,0,0,0,21.77,7c6.62.82,15.09,1.32,21-2.46,11.67-7.5,4.4-24.72-1.78-33.35-7.28-10.18-17.59-17.51-27.89-24.37s-23.19-13.6-30.67-23.81c-8.84-12.05,8.33-23.12,18.71-15.61,11.66,8.45,9.94,25,4.22,36.35-7.29,14.41-18.93,26.91-30.22,38.28a361.73,361.73,0,0,1-37.16,32c-24.41,18.69-50.77,37.67-63.67,66.62-10.91,24.46-11.4,55.54,10.45,74.2,18,15.41,46.22,18.6,62.33-1.37,17.3-21.47,12-53.12,9-78.27q-6.31-54.36-15.38-108.34-2.25-13.47-4.66-26.9c-.7-3.9-6.85-3.71-7.69,0-3.58,15.83-10,40.17-31.08,37.84-9.06-1-12.24-8.12-12.28-16.48,0-9.09,1-17.85-5-25.43-1.54-1.95-5.45-1.42-6.46.84-5.35,11.92-10.57,23.89-15.84,35.84-2.56,5.82-5,11.71-7.72,17.46-1.81,3.85-4.12,8.75-8.18,10.71-9.69,4.67-18.95-9.47-21.61-16.92a36.16,36.16,0,0,1,1.45-28.34l-7.45-3.14a226,226,0,0,1-13.82,37c-2.84,5.88-6,11.6-9.38,17.18-2.67,4.39-6.11,11.2-11.78,12.13s-10.24-5-11.31-10c-1.44-6.66.61-13.68,2.5-20A132.48,132.48,0,0,1,678,209.59c3.51-5.46,7.4-11.91,12.41-16.11,1.38-1.16,8.39-5.56,9.19-2.34l2.9-5.1-85.33,16.65a4.18,4.18,0,0,0-3,4,288.21,288.21,0,0,1-2.1,41.53c-1.26,10.15-2.28,24.49-11.66,30.8-8.28,5.57-20.09,2.67-26.92-3.9-8.27-7.95-10.81-19.9-10.91-31h-8.28c.83,9.79-.54,20.69-6.4,28.88-5.45,7.61-15.42,9.87-23,3.75-8.18-6.64-11-18.25-10-28.31,1.36-14.59,7.56-28.24,8.93-42.88.46-4.83-7-5.56-8.28-1.12a101.06,101.06,0,0,1-38.59,54.08,99.69,99.69,0,0,1-30.55,14.72c-11.83,3.31-25.78,5.4-37.06-.7-18.37-9.93-22.91-34.62-23.1-53.62-.27-26.22,5-52.77,13.73-77.41a236.54,236.54,0,0,1,16.53-36.35c3.29-5.86,6.83-11.59,10.62-17.14,1.91-2.79,7.27-12.74,11.84-9.9,3.32,2,2.93,8.8,2.69,12a176.29,176.29,0,0,1-2.3,17.57,227.44,227.44,0,0,1-8.71,34.06,236.35,236.35,0,0,1-80.71,112.07,221.92,221.92,0,0,1-29.66,18.91c-11.12,5.91-25.91,12.83-38.08,5.77-10.07-5.85-14.33-18.37-17.27-28.95a176.14,176.14,0,0,1-6.42-43.06,185.32,185.32,0,0,1,.81-22c.44-4.61-7.2-5.65-8.1-1.09-7,35-17.44,76.07-53.46,91.77-15.78,6.87-34.3,6.67-48.21-4.29-14.87-11.71-21.52-30.67-23-49-1.62-20.52.84-42,4.9-62.17,3.81-18.9,10.18-37.41,21.19-53.39,19.34-28.07,58.45-47.69,90.94-29.9,16.54,9.06,28.91,26.29,30.43,45.3a60.06,60.06,0,0,1-22.27,51.85c-2.43,1.93.86,6.26,3.35,4.34Z" fill="#f1baba"/></g><g id="Hungry"><path d="M298.41,540.67c-2.51,6.42.6,13.3,5.9,17.29,6.78,5.11,15.76,4.18,23.23,1.15,14.56-5.92,27.61-16.93,37.46-29,19.28-23.68,30-56.08,24.42-86.56-2.95-16-11.31-31.19-26.86-37.66-2.37-1-4.56,1.44-4.68,3.56-2,36-4.18,72-4,108Q354,544.12,356,570.7c1.18,15.81,2.56,31.64,2.58,47.51s-1.19,31.86-5.82,47.16c-3.42,11.28-10.47,32.32-25.49,31.36-8-.51-10-7.79-8-14.5s6.91-12.33,11.66-17.36c10.08-10.66,22.17-19,34.54-26.82s25.22-15.08,37.19-23.61A265.76,265.76,0,0,0,438.88,583c21.74-22.33,42.25-47.54,55.58-75.89C500.74,493.78,505.32,479.7,507,465c1.54-13.9.52-29.68-5.51-42.5-5-10.73-17.34-15.78-27-7.51-10.13,8.67-11.93,23.09-13.67,35.43a1049.93,1049.93,0,0,0-8.36,212.54q.82,13,2,26l8.77-1.19c-3.69-10.91,2.59-21.41,10.88-28.3,10.12-8.42,23.91-10.79,36.34-13.77,11.75-2.81,23.16-6.47,33.33-13.16a88.76,88.76,0,0,0,23.43-22.74,83.3,83.3,0,0,0,14.44-35c.77-4.81-5.94-8.71-8.54-3.6a172.21,172.21,0,0,0-14.88,41.12c-2.65,12.1-4.89,25-2.06,37.2,2,8.8,7.15,18.7,16.63,21.1,12.07,3,21-6.58,27-15.71a173.15,173.15,0,0,0,20.53-44.51L611.59,608c-2.91,16.18-5.25,35.55,9,47.26,5.71,4.68,13.16,7,20.42,4.92s12.83-7.75,17.19-13.59c8.37-11.24,12.13-25,18.24-37.41,3-6.15,6.63-12.06,11.8-16.64,2.25-2,5.77-5,9-3.92,2.93,1,4.32,4.93,5.1,7.58,2.83,9.61,3,20.55,3.41,30.5a265.48,265.48,0,0,1-.91,34.88c-.39,4.51,5.92,5.53,8.05,2.18,16-25.22,28.71-52.38,39.12-80.32l-6.17,2.51c9.69,5.82,11.3,18.67,13.87,28.69,2.77,10.77,6.93,22.43,17.57,27.74,12.25,6.13,26.93,1.47,37.22-6.4,12.77-9.77,19.29-25,29.34-37.17a63.73,63.73,0,0,1,47.28-23.19c3.83-.11,6.07-5.93,2.1-7.77-11.9-5.5-25.27-2.35-35.19,5.79-10.7,8.78-15.85,22.51-19.92,35.31s-6.56,29.75,6.65,38.47c12.2,8.05,23.53-2.21,29.8-12.38a147.46,147.46,0,0,0,18.9-48.59h-8a399.25,399.25,0,0,1,13,100.45c0,16.2-.16,33.18-3.17,49.14-1.33,7.06-3.94,14.5-10.56,18.23s-12.87,1-16.4-5.3c-6.67-11.85-4.63-27.94-.27-40.17,4.82-13.53,13.53-25.56,23.1-36.13,18.66-20.64,42.24-36,60.94-56.67,9.65-10.65,18-22.6,22.92-36.21,2.26-6.3,4.54-13.6,3.33-20.35-1-5.5-4.78-11.19-11.06-10.5-3.52.38-6.21,4.71-3.13,7.56,5.52,5.1,12.32,4.69,19,2.15,6-2.31,13.21-7.18,20-6.09,7.07,1.13,8.14,9.57,7.76,15.39-.56,8.68-5.32,15.68-9.09,23.25-4.1,8.25-7.85,17.82-5.06,27.1a22.83,22.83,0,0,0,15,15c16.4,5.5,31.77-3.91,41.25-16.82,11.86-16.17,17.11-42.24,37.79-50l-5.42-3.08c2.88,13.55-.59,28,4.22,41.18,3.52,9.68,10.58,18.65,21.45,19.84,11.27,1.23,21.14-6.6,26.66-15.8,7.16-11.93,7-26.6,10.62-39.69l-8.39-1.14a472.55,472.55,0,0,1-1.44,104.92c-1.85,14.84-3.93,30-8.58,44.32-3.59,11-9.27,23-19.54,29.23-12.86,7.85-27.42,3-39.05-4.75-12.31-8.19-24.52-19.55-31.29-32.85-3.16-6.21-4.92-13.38-3.13-20.26s6.73-12.25,12.27-16.4c11.75-8.82,26.11-14.4,40.31-17.76,33.32-7.88,68.44-4.08,102,.22,5.91.75,5.85-8.53,0-9.28-33.34-4.27-67.62-7.54-100.81-.36-26.24,5.69-69.08,22.2-62.64,56.23,3,15.56,15,28.63,26.57,38.64,12,10.35,27.12,20.74,43.75,19.43,30.35-2.38,40.45-36.39,44.82-61.44a495,495,0,0,0,5.31-129.89c-.42-4.61-7-6-8.39-1.13-3.13,10.91-3.43,22.69-7.76,33.25-3.35,8.15-11.61,17.52-21.4,15.83-8.91-1.54-13.38-11.5-14.75-19.45-2-11.66.19-23.56-2.3-35.23a4.43,4.43,0,0,0-5.42-3.09c-17.62,6.58-26,23.39-34.15,39.07-7.22,13.86-17.63,30.92-35.75,28.74-7.65-.91-13.65-6-13.89-14-.28-9.85,6.57-18.9,10.7-27.36,5.33-10.9,7.84-28.33-2.81-37-6.25-5.13-14.52-4.2-21.61-1.51-5.08,1.93-15.37,9-20.44,4.37l-3.14,7.56c4.63-.41,1.48,11.62.82,14a78.14,78.14,0,0,1-8,18.62c-7.06,12-16.69,22.31-26.81,31.82-21.6,20.28-46,37.38-62.61,62.47-7.85,11.89-13.61,25.31-14.87,39.6-1.1,12.4,1,28.84,11.81,36.74,12,8.73,27.11.1,32.58-11.94,3-6.53,3.92-13.61,4.65-20.67q1.41-13.51,1.84-27.09a407,407,0,0,0-13.25-117.08c-1-3.79-7.19-4.11-8,0a141.06,141.06,0,0,1-16,43.24c-3,5.22-6.8,12.65-13.08,14.47-6.69,1.93-12.17-4.6-13.46-10.53-1.68-7.71,1.27-15.86,3.68-23.1a85.52,85.52,0,0,1,8.39-18.6c6.83-10.87,20.82-20.78,34-14.68l2.11-7.77a72.24,72.24,0,0,0-42,14.81c-12.46,9.58-19.6,23.27-28.8,35.66-7.85,10.57-21,22-35.36,18.59-12.07-2.86-15.26-16.13-17.84-26.54-2.91-11.74-6-24.43-17.07-31.11-2.49-1.5-5.25,0-6.17,2.51-10.19,27.32-23.44,53.25-38.48,78.2l8,2.18a291,291,0,0,0-1.26-59.23c-.81-6.39-2.06-13.34-6.61-18.25-4.77-5.15-11.78-5.46-17.71-2.14C676.07,588.62,669.75,602,664.69,614c-5.22,12.37-10.23,28.53-22.4,35.93C634,655,625.14,649.64,621,641.8c-5-9.5-2.58-21.41-.76-31.42,1-5.63-7-8-8.67-2.39a164.81,164.81,0,0,1-19.27,41.66c-3.28,5.05-7.83,12-14.55,12.36-4.45.23-7.62-2.84-9.69-6.46-6.08-10.65-4.25-23.82-2.12-35.27A162.92,162.92,0,0,1,581.1,575.9l-8.53-3.6a78,78,0,0,1-37.86,55.08c-22.2,12.7-51.71,9.54-70.38,28.84-8.66,8.95-13.95,21.59-9.78,33.88,1.52,4.48,9.24,4.11,8.77-1.18a1043.58,1043.58,0,0,1,2.59-213.29q1.59-13.68,3.55-27.31c1-6.71,1.94-13.38,5.05-19.5,2.05-4,5.53-9.73,10.71-9.7,6.91,0,9.55,8.69,11,14.06,8.05,30.17-3.13,61.15-18.68,86.92-16.4,27.18-38.32,52.21-62.11,73.16-22.68,20-50.09,32.77-74,51.07-10.59,8.12-22.21,18-28.08,30.3-5.45,11.41-4.21,27,10.4,30,13.8,2.91,24.26-8,29.92-19.27,6.95-13.77,10.54-28.87,12.11-44.15,3.32-32.11-2.13-64.49-3.46-96.57-1.51-36.27-.35-72.67,1.5-108.91.45-8.78.94-17.55,1.42-26.33L360.59,413c23.84,9.9,24.88,44.13,20.61,65.42a107.35,107.35,0,0,1-39.8,64c-6.26,4.74-13.35,9.42-21,11.48-4.17,1.13-8.74,1.19-12.33-1.5-3.25-2.43-5-6.06-3.57-10s-4.64-5.41-6.1-1.68Z" fill="#f1baba"/></g></svg>