<svg xmlns="http://www.w3.org/2000/svg" width="1180" height="768" viewBox="0 0 1180 768"><title>FLP</title><g id="For"><path d="M540.42,32.6a97.71,97.71,0,0,1-40.3,49.61c-9.29,5.72-21.24,10.38-32.13,6.71-8.43-2.84-13.39-10.44-15.14-18.85-2.05-9.86-.26-20.5,3.5-29.74l-2.8,1.6c11.48,2.91,17.33,14.68,21,25,2.45,6.92,4.35,14.07,6.28,21.16q3.19,11.74,5.9,23.63a474.4,474.4,0,0,1,12.17,96.26,385.46,385.46,0,0,1-2.09,48.4c-.8,7.45-1.46,15.18-3.44,22.43-1.62,5.93-4.88,11.69-11.26,13.25a8.74,8.74,0,0,1-7.37-1.19,8,8,0,0,1-2.95-6.49c0-6.12,3.67-11.79,7.06-16.6A364,364,0,0,1,506,233.67a369.9,369.9,0,0,1,65.15-57.19q4.52-3.09,9.11-6l-2.76-3.58c-15.11,12.38-24.23,31.06-26.16,50.37a72.11,72.11,0,0,0,2.79,28.46c3,9.45,8.1,18.53,16.12,24.56a27,27,0,0,0,13.41,5.36,26,26,0,0,0,14.55-3.08c9.3-4.87,15.85-14,20-23.47C627,229,627,204.11,615.78,185c-4.95-8.45-12.68-16.12-22.47-18.47A27.21,27.21,0,0,0,569,172.83a19.5,19.5,0,0,0-3.42,24.45,28,28,0,0,0,24.15,13.12c11.19-.28,21.24-6.2,29.41-13.44,8.64-7.67,15.36-17.19,23.44-25.4,7.54-7.66,17-14.58,28-15.77a26.77,26.77,0,0,1,7.79.23c2.21.41,5,1,6.6,2.71,1.79,1.9.85,4.74,0,6.85-1.09,2.57-2.41,5-3.55,7.6-8.76,19.55-15.86,43.72-4.82,63.86,8.75,16,28.38,23.87,46,20.51A38.64,38.64,0,0,0,734.56,253c2.54-1.47.25-5.41-2.3-3.94-14.17,8.23-33.44,5.25-45.24-5.88-15.26-14.41-12.82-37.22-6.66-55.29a150.34,150.34,0,0,1,6-14.78c2.17-4.69,5.79-10.24,3.32-15.49-2.18-4.63-8.34-6-12.93-6.43a34.75,34.75,0,0,0-15.12,2c-10.39,3.69-18.66,10.94-26,19s-14,17-22.58,23.87c-7.41,5.94-17.36,11-27.15,9.53-8.21-1.25-16.54-7.18-18.42-15.6-1.78-7.94,3.72-14.88,10.74-17.85a23.59,23.59,0,0,1,11.32-1.73,24.49,24.49,0,0,1,11.69,4.75c7.63,5.42,12.59,14.18,15.41,22.94a69.21,69.21,0,0,1,2.47,31.57c-1.57,10.13-5.23,20.34-11.46,28.56-5.52,7.29-13.81,13.53-23.38,12.81-9.17-.68-16.36-7.91-20.81-15.39a59.32,59.32,0,0,1-7.72-25.7,72.07,72.07,0,0,1,15.65-50.62,67.29,67.29,0,0,1,9.33-9.31c2-1.64-.6-5-2.76-3.58A373.66,373.66,0,0,0,478.76,260c-4.11,5.62-8.47,11.28-10.55,18-1.87,6.1-1.25,13.13,4.49,16.92,5.49,3.62,13,1.71,17.72-2.23,5.51-4.58,7.48-12.18,8.6-18.93a351.44,351.44,0,0,0,4.38-50.08c.71-33.84-2.93-67.7-9.65-100.85-3.36-16.6-7.51-33-12.33-49.28-3.49-11.78-8-25-18.48-32.36a24.86,24.86,0,0,0-8.18-3.72,2.35,2.35,0,0,0-2.8,1.59c-6.73,16.54-7.75,42.07,10.16,52.13,11,6.18,24.2,3.23,34.88-2.09a94.6,94.6,0,0,0,27.59-21.54,103.2,103.2,0,0,0,20.22-33.81c1-2.76-3.4-4-4.39-1.21Z" fill="#a9bed8"/></g><g id="Loop"><path d="M39.89,427.4c24.48,4.27,50.55-6,65-26.37a67.16,67.16,0,0,0,9.92-54.29c-1.31-5.21-3.1-12.67-8.31-15.36-6.91-3.56-9,6.44-10.45,10.94a165.82,165.82,0,0,0-5.36,21.85,224.55,224.55,0,0,0-3,44.85c.79,31,6.69,61.55,12.17,92,2.85,15.89,5.61,31.81,7.41,47.85,1.7,15.14,3,30.68,1.63,45.9-1.21,13.5-5.29,27.34-15.43,36.85-8.39,7.87-21.91,13.27-32.92,7.6-8.54-4.4-14.93-15.08-12.58-24.79,3-12.27,17.84-15.21,28.47-12.45,7.15,1.85,13.56,5.66,19.67,9.69,6.53,4.3,13,8.77,19.41,13.16,13,8.83,25.75,18.35,39.34,26.26,12.13,7.07,25.93,12,40,8.4,12.8-3.26,24.1-12,32.87-21.64a98.87,98.87,0,0,0,25.49-67.12,93.29,93.29,0,0,0-2-17.94c-.55-2.65-4.29-1.82-4.47.61l-3.41,46.52c-.77,10.48-1.44,21.76,3.19,31.54s15.29,14,25.5,10.56c10.92-3.72,19-13.39,23.49-23.71,8.81-20.31,5.32-45.2-6.58-63.55-6-9.27-15.59-18.11-27.48-16.33C251.17,540,243.07,549.56,247.54,560a20.79,20.79,0,0,0,13.65,11.49c7.45,2,15.33.24,22.39-2.36a125.73,125.73,0,0,0,38.81-23.29l-3.81-2.21c-5.95,23.93-12.1,52.55.68,75.39,6.15,11,17.57,21.33,31,16.93,12.68-4.15,21-17,25.83-28.69,5.07-12.29,6.75-26.32,3.35-39.27A46.18,46.18,0,0,0,359,540.13c-9.54-5.87-21.42-8.5-32.41-5.72-5.24,1.33-12.23,4.05-14.29,9.53-2,5.21,1.5,9.84,5.83,12.47,5.23,3.18,11.46,3.74,17.44,4a90,90,0,0,0,56.86-17.34,92.25,92.25,0,0,0,7.77-6.45L396.26,535q1.8,41.78,1.27,83.6c-.35,27.27-1,54.75-3.38,81.93-1,10.83-3.17,23.6-12.82,30.19l3.43,2a384.55,384.55,0,0,1,18.84-80.09c8.88-25.28,20.28-50.06,34.6-72.75,7.08-11.23,16-22.44,28.86-27.11l-2.8-1.6a82.81,82.81,0,0,1-10.62,53.31c-4.56,7.78-10.41,15.15-17.72,20.52-6.94,5.09-15.71,9.09-24.52,7.86-3.81-.53-8.75-2.07-10.3-6-2-5,6.21-3.13,8.53-2.74a105.68,105.68,0,0,0,24.87,1.17,115.8,115.8,0,0,0,47.21-14,110.16,110.16,0,0,0,40.35-37.69c1.56-2.48-2.38-4.77-3.94-2.29C498.82,602,463,621,426.86,621a99.47,99.47,0,0,1-13.57-.91c-4.05-.56-8.76-2.25-12.75-.66a6.77,6.77,0,0,0-3.6,9.18c1.67,4,5.43,6.47,9.44,7.77,18.93,6.11,37.38-9.45,47.49-23.82a87.62,87.62,0,0,0,14.78-62.58,2.29,2.29,0,0,0-2.8-1.59c-11.65,4.23-20.36,13-27.41,23-7.87,11.06-14.32,23.28-20.36,35.41a387.71,387.71,0,0,0-37.88,126c-.21,1.7,2.1,2.88,3.43,2,8.7-5.94,12.44-15.89,14.07-25.93,2.05-12.61,2.19-25.63,2.8-38.36q2.08-43.18,1.63-86.44-.24-24.48-1.31-48.92a2.31,2.31,0,0,0-3.89-1.61,85.38,85.38,0,0,1-66.34,22.09c-4.66-.49-10.37-1.7-13.36-5.71-3.75-5.06,3.67-8.68,7.53-10.07,9.33-3.36,19.78-2,28.51,2.46a41.39,41.39,0,0,1,20.47,22.69c4.09,11.27,3.66,23.66.18,35-3.35,10.91-9.67,22.63-19.49,29-5.19,3.35-11.37,4.75-17.2,2.17-5.35-2.37-9.5-7.13-12.6-12-14-21.87-7.48-50.85-1.66-74.28a2.29,2.29,0,0,0-3.8-2.22,123.54,123.54,0,0,1-29.93,19.27c-10,4.53-24.34,10-33.76,1.45-3.51-3.19-5.89-8.13-4.06-12.84,1.53-3.93,5.46-6.34,9.41-7.28,10.36-2.47,19,5.93,24.14,13.89,10.51,16.2,14.12,37.66,7.68,56.06-3.25,9.3-9.48,18.27-18.33,23-4.56,2.41-10,3.61-15,1.78a16,16,0,0,1-8.65-8.18c-4.68-9.3-3.49-20.71-2.76-30.71l3.34-45.57-4.47.6c5,24-.44,49.51-13.92,69.85-7,10.57-16.35,20-27.4,26.32-6.14,3.52-13,5.94-20.11,6s-14.07-2-20.46-4.94c-13.59-6.34-25.77-15.86-38.11-24.25l-20-13.57c-6-4.12-12-8.42-18.58-11.73-10.78-5.45-24.25-8-35.12-1.26-9.14,5.63-12.24,16.44-8.74,26.38,3.34,9.5,11.48,17.3,21.61,18.82,11.91,1.78,23.68-3.67,31.93-12.07,9.36-9.52,13.56-22.55,15.14-35.54,1.79-14.73.68-29.88-.8-44.59-3.15-31.39-10.09-62.23-15-93.36-4.64-29.5-7.4-59.88-3-89.58a170.46,170.46,0,0,1,4.57-21.59q1.53-5.44,3.45-10.75c.41-1.13.7-3.27,2.19-2.73,1.28.46,2.27,2.19,2.83,3.32,5.55,11.3,6.15,25.54,3.47,37.65a59.63,59.63,0,0,1-18.6,32A62.94,62.94,0,0,1,59,423.37,59.82,59.82,0,0,1,41.1,423c-2.87-.5-4.1,3.89-1.21,4.4Z" fill="#a9bed8"/></g><g id="Code"><path d="M788.41,411.51c16.53-16.84,29.44-39.17,33.59-62.59,3.19-18-.55-43.25-22.28-47.07-25.5-4.48-42.94,20.82-55.34,39a351.06,351.06,0,0,0-34.61,65.39,521.16,521.16,0,0,0-23,72.1c-3,12.16-5.67,24.41-8.09,36.7-2.56,13-5.06,26.07-6.66,39.23-3,24.34-1.58,50.65,13.68,71a54.07,54.07,0,0,0,25.56,19.1c11.09,3.79,23.22,3.44,34.51.68,24.86-6.08,44-23.43,62.5-40.11s38.92-34.23,64.56-38a56,56,0,0,1,18.27.29c2.34.43,4.27-3,1.76-4.16-15.67-7.24-31.8,1.45-43.29,12.31a107.42,107.42,0,0,0-16.38,20.35c-4.83,7.56-8.81,15.87-10,24.84-2,14.93,5.17,32.07,21.05,35.59,17.25,3.83,32.43-7.82,41.16-21.64A108.81,108.81,0,0,0,896.61,610c2.94-9,4.64-18.75,3.6-28.27-1.69-15.34-11.43-30.42-26.79-35a25.49,25.49,0,0,0-20.08,2,28.78,28.78,0,0,0-12.2,14.4c-2.31,5.91-2.32,12.8,1,18.37,4.08,6.93,12,10.66,19.71,11.76,19.15,2.74,36.36-8.37,53.51-15a150.1,150.1,0,0,1,57.37-9.89c4.8.12,9.58.48,14.34,1,2.3.27,3-3.23,1.15-4.25-11.08-6-24.23-6.57-36.15-2.83a56.68,56.68,0,0,0-30.29,23.13C914.2,597,910.42,610.51,909.36,624c-.83,10.68-1.08,26.08,9,32.86,12.69,8.5,26.52-7.06,34-15.73,9.35-10.87,16.84-23.18,23.14-36,6.5-13.27,11.8-27.09,16.83-41q8.61-23.76,16-47.92,7.5-24.36,13.77-49.07c4-15.69,7.59-32,6.26-48.27a78.13,78.13,0,0,0-1.86-11.77c-.53-2.24-3.78-2.09-4.39,0-12,41.17-23.88,82.69-28.57,125.44a289,289,0,0,0-.43,63.47c1.09,9.74,2.45,19.69,5.29,29.1,2.46,8.13,6.49,16,13.39,21.17,13.08,9.89,31.82,8.13,45.43.35,15.55-8.89,27-24.66,36.1-39.74,4.88-8.12,9.1-16.92,11-26.26,1.63-8.15,1.92-18.62-2.6-26-1.86-3-5.12-5.76-8.91-4.78s-6.6,5.42-8.72,8.46a55.67,55.67,0,0,0-9.11,22.48c-2.72,16,1.13,32.7,11.71,45.19a58,58,0,0,0,42,20,53.35,53.35,0,0,0,11.89-1c2.88-.55,1.66-5-1.21-4.39-14.59,2.84-30.13-1.36-41.79-10.45a49.4,49.4,0,0,1-18.93-38.56,54.08,54.08,0,0,1,4.24-21.78,50.73,50.73,0,0,1,5.71-10,39.54,39.54,0,0,1,3.37-4c1.65-1.71,3.12-2,4.79-.16,2.68,2.88,3.48,7.74,3.84,11.51a42.73,42.73,0,0,1-.76,12.71c-1.8,8.71-5.69,16.84-10.23,24.44-8.39,14-18.92,28.77-33.06,37.5-12.28,7.57-29.66,10.1-41.91,1-6.57-4.88-10.08-12.59-12.24-20.27a168.63,168.63,0,0,1-4.81-27.34,284.86,284.86,0,0,1,0-57.73c3.77-39.26,14-77.56,24.92-115.34,1.32-4.59,2.66-9.17,4-13.74h-4.39c3.57,15.07,1.71,30.64-1.54,45.59-3.29,15.17-7.53,30.18-11.85,45.09-8.44,29.11-17.84,58.16-29.34,86.22a233.23,233.23,0,0,1-18.16,36.15,139.68,139.68,0,0,1-11.87,16.23c-4.34,5.07-9.1,10.45-14.75,14.06-5.22,3.34-11.81,4.43-16.17-.8-3.32-4-4.43-9.68-4.75-14.71A83.76,83.76,0,0,1,920,598.45c4.88-11.41,12.85-21.44,23.78-27.52,10.19-5.66,22.61-8,34-4.95a37.5,37.5,0,0,1,8.11,3.26L987,565a154.31,154.31,0,0,0-51.47,2.57,150.38,150.38,0,0,0-25,7.84c-7.84,3.24-15.46,7-23.45,9.89s-16.48,4.88-24.93,3.54c-6.8-1.08-14.2-4.51-17-11.23C840.7,567,849.46,554.09,859.71,551c13.44-4.1,26.63,6.59,32.28,18,7.63,15.34,3.25,33.91-3.15,48.86-5.94,13.88-14.82,29-30.33,33.37-7,2-14.73,1.51-20.79-2.72-5.66-4-8.84-10.59-10-17.26-2.64-15.65,6.78-30.75,16-42.58,8.64-11.12,21.77-23.65,36.81-23.79a23.36,23.36,0,0,1,10,2.18l1.75-4.16c-24.13-4.44-47.62,6.68-66.36,21.06-19.27,14.8-35.5,33.61-56.43,46.24-19.07,11.5-44.6,18.08-65.06,6.15-19.7-11.47-28.21-35.08-29.12-56.8-.58-13.68,1.27-27.31,3.58-40.75q3.09-18,6.87-35.79a618.37,618.37,0,0,1,18.82-69.79,395.86,395.86,0,0,1,28.77-65.8,313,313,0,0,1,19-30.05c6.78-9.45,14.05-19.48,24-25.81,9.31-5.93,22.21-8.26,31.62-1.21,7.36,5.5,10.05,15.09,10.46,23.88.48,10.39-2,20.52-5.56,30.22a122.69,122.69,0,0,1-16.54,30.8,120.57,120.57,0,0,1-11.21,13.09c-2.05,2.1,1.16,5.32,3.22,3.23Z" fill="#a9bed8"/></g></svg>