<svg id="Layer_1" data-name="Layer 1" xmlns="http://www.w3.org/2000/svg" viewBox="0 0 397.48 353.17"><title>Food-01</title><path d="M214,81.26c-10.63,14.16-27.26,22.7-44.59,25.23s-35.87-1-50.29-11.26c-15.21-10.77-25.89-30.59-22.76-49.5a34.9,34.9,0,0,1,4.9-13c1.47-2.31,3.34-5,6.13-5.8s5.74.85,7.82,2.71c4.1,3.67,6.78,9.18,8.7,14.26a62.47,62.47,0,0,1,3.66,15.54C130,81.54,123.53,104,117,124.85s-14.69,41.2-25.44,60.22C81,203.78,67.87,221.12,51.72,235.36c-4.13,3.65-8.46,7.49-13.22,10.3-4.59,2.71-9.58,2.7-13.12-1.58a14.24,14.24,0,0,1-2.68-12.72c1.47-5.22,5.21-9.4,9.25-12.86,8.13-7,17.88-12.41,27.57-16.88a149.12,149.12,0,0,1,96.08-9.53,143.6,143.6,0,0,1,15.32,4.62l.4-3c-28.38-3.77-58.15,10.55-73.18,34.88-7,11.29-11.85,27.83-3.62,39.79s25.81,14.19,39,11.69a51.52,51.52,0,0,0,33-21.4c7.71-11.53,9.49-26.31,6.11-39.62a51,51,0,0,0-8.93-18.52c-4.3-5.59-10.1-10.91-17.08-12.76-6.2-1.64-12.94.52-15.71,6.58-2.39,5.22-1.65,11.61,1,16.56,3.4,6.22,10.29,9.61,16.9,11.32,8.28,2.14,17.05,2.43,25.52,3.22L232.8,231l14.8,1.39c1.43.13,2.11-2.21.75-2.8-15.15-6.53-31.91-.51-45.83,6.38-11.54,5.71-24.1,14.23-28.7,26.85-4.75,13,2.59,26.43,14.49,32.39,14,7,31.31,3.32,44.54-3.68,11.73-6.21,22.22-16.48,25.66-29.63a32.69,32.69,0,0,0-12.17-34,24.43,24.43,0,0,0-17.13-5.14c-6,.64-12.51,4.48-13.93,10.74-1.79,7.83,6.4,10.74,12.25,12.79A168.9,168.9,0,0,0,253.31,253a171.72,171.72,0,0,0,26.18,2.67c7.08.17,14.15-.17,21.22-.15,12.21,0,26.41.57,36.43,8.5a27.38,27.38,0,0,1,6.09,6.79,1.51,1.51,0,0,0,2.74-1.15c-3.27-11.58-15.37-17.92-26.81-17.83-13.68.1-27,7.35-37.85,15.07A108.1,108.1,0,0,0,254,294.63c-6.81,10.13-11.38,23.69-4.12,34.86a18.29,18.29,0,0,0,14,8.4c6.66.57,13.26-1.95,19.15-4.79,11.55-5.58,21.49-14,30.08-23.47,8.85-9.73,16.42-20.55,23.69-31.48q12.42-18.67,23.43-38.22t20.55-39.85c3.06-6.52,6.11-13.09,8.85-19.76,1.85-4.51,3.43-10.18,1.76-15a9.46,9.46,0,0,0-4-5,1.56,1.56,0,0,0-2.06.54,486.12,486.12,0,0,0-49.79,83.39q-10.29,22-18.36,44.88c-4.38,12.47-7.86,25.42-8.3,38.69-.41,12.07,2,24.59,9.94,34.06,9.1,10.9,23.89,15.34,37.71,15,24.74-.59,49.53-17.44,57.61-41.11a46,46,0,0,0,2.42-17.94c-.41-5.93-2-12.43-6.43-16.69-4.72-4.51-11.33-4.14-16.44-.47-6,4.33-10.35,11.36-13.66,17.86a77.6,77.6,0,0,0-4.39,10.54,1.52,1.52,0,0,0,2.21,1.7c7.59-4.28,11-13.4,9.82-21.79-1.21-8.7-7.55-15.62-16.43-16.61-8.35-.94-17.43,3.31-21.69,10.63-6.39,10.95.58,23.89,6.06,33.62a218.18,218.18,0,0,0,26,36.58c1.28,1.45,3.39-.68,2.12-2.12a214.33,214.33,0,0,1-21-28.3A167.08,167.08,0,0,1,354,327.23c-2.55-5.3-4.66-11.29-3.78-17.25,1.16-7.87,8.35-13.39,15.92-14.53,7.85-1.18,15.3,2.93,17.78,10.6,2.59,8,0,17.87-7.61,22.14l2.21,1.69a71.22,71.22,0,0,1,10.23-19.8c3.65-4.95,10.1-11.92,16.93-8.45,5.23,2.65,7.2,9.45,7.74,14.85a43.42,43.42,0,0,1-1.78,17.25c-7,22.5-30.3,38.85-53.48,40.09-13.31.72-27.72-3.13-36.72-13.45-7.77-8.92-10-21.05-9.58-32.55.4-12.27,3.5-24.35,7.5-35.9q7.47-21.56,17-42.33a483.83,483.83,0,0,1,45-78.11q3.24-4.59,6.59-9.1l-2.05.53c4.3,2.68,3.46,8.55,2.28,12.71-1.7,6-4.74,11.7-7.32,17.33q-8.49,18.56-18.22,36.53T341.78,265c-6.82,10.79-13.87,21.52-21.68,31.63-7.28,9.42-15.4,18.4-25,25.55a82.33,82.33,0,0,1-15,9c-5.7,2.6-12.4,4.86-18.7,3.29-5.52-1.38-9.41-5.83-11.15-11.12-1.9-5.77-1.15-11.83,1-17.42,2.34-6,6.16-11.4,10.18-16.37A109,109,0,0,1,274,276.48c9.29-8.2,20.34-15.43,32.16-19.33,11.27-3.71,24.82-3.45,33.13,6.18a18.5,18.5,0,0,1,3.8,7.11l2.74-1.15c-13.32-20.9-43-16.36-64.1-16.59A167.12,167.12,0,0,1,234,245.18a87,87,0,0,1-11.26-4c-3-1.41-5.45-3.91-4.4-7.43,1.82-6.16,9-8.59,14.79-8.12,12,1,21.2,12.51,23.16,23.75,2.19,12.54-5.24,24.65-14.45,32.5-10.51,8.95-25.14,14.67-39,14-12.83-.66-26.7-9.36-27.44-23.34-.68-12.8,9.93-22.63,19.82-29a103.68,103.68,0,0,1,18.33-9.19c7.12-2.77,14.7-4.89,22.41-4.6a30.47,30.47,0,0,1,10.93,2.42l.76-2.79-53.73-5-26.47-2.48c-7.42-.7-15.1-1.13-22.11-3.87-5.93-2.31-10.8-6.44-12.33-12.78-1.17-4.9-.26-11.13,4.55-13.77,6.71-3.69,14.68,1.51,19.46,6.09a45.55,45.55,0,0,1,10.65,15.85c4.74,11.72,5.09,25.44,0,37.11s-15.54,20.59-27.54,24.78-26.65,4.16-37.46-3C90.2,264,92.07,247.17,97.82,235.39c11.54-23.64,37.77-39.06,63.85-39.24a69.19,69.19,0,0,1,9.65.61c1.78.24,1.88-2.41.4-2.94A150.86,150.86,0,0,0,38.05,210.24c-8.31,5.61-18.72,13.45-18.87,24.55-.13,9.36,8,18.72,17.79,15,5.32-2,10-6.39,14.29-10a166.75,166.75,0,0,0,12.63-11.88A194.22,194.22,0,0,0,85.17,201.2c13-19.46,22.81-40.93,30.54-63,3.86-11,7.28-22.21,10.13-33.52,2.93-11.6,5.15-23.53,5.22-35.53.08-11.45-1.95-23.07-7.49-33.21C121,31.19,117.41,26,112,24.22c-5.63-1.86-9.91,1.9-12.85,6.3-11.64,17.37-5.68,40.89,6.58,56.2,11.94,14.91,30.91,22.69,49.7,23.47,18.59.77,37.67-5.13,51.85-17.35a64.05,64.05,0,0,0,9.34-10.06c1.16-1.55-1.44-3-2.59-1.52Z" transform="translate(-19.18 -23.73)" fill="#f40c0c"/></svg>